# xmcd
#
# Track frame offsets: 
#        150
#        21339
#        55331
#        76735
#        110079
#        141356
#        177836
#        207083
#        224663
#        263135
#        293827
#        316380
#
# Disc length: 4472 seconds
#
# Revision: 1
# Processed by: cddbd v1.5.2PL0 Copyright (c) Steve Scherf et al.
# Submitted via: ExactAudioCopy v1.3
#
DISCID=b711760c
DTITLE=Montgomery, Wes - Sound Carrier
DYEAR=1900
DGENRE=Jazz
TTITLE0=01 Billie's Bounce (Parker)
TTITLE1=02 Bud's Beaux Arts
TTITLE2=03 Lois Ann
TTITLE3=04 Not Since Nineveh (Wright - Forest)
TTITLE4=05 Sound Carrier
TTITLE5=06 Lolita (Adderley)
TTITLE6=07 Azule Serape (Adderley)
TTITLE7=08 Au Privave (Parker)
TTITLE8=09 Never Will I Marry (Loesser)
TTITLE9=10 Compulsion (Land)
TTITLE10=11  Mean To Me (Adderley)
TTITLE11=12 Work Song  (Adderley)
EXTD=
EXTT0=
EXTT1=
EXTT2=
EXTT3=
EXTT4=
EXTT5=
EXTT6=
EXTT7=
EXTT8=
EXTT9=
EXTT10=
EXTT11=
PLAYORDER=
